# xmcd
#
# Track frame offsets:
#	187
#	15562
#	31640
#	43632
#	60820
#	75327
#	96862
#	114080
#	129662
#	141680
#
# Disc length: 2194 seconds
# Revision: 3
# Processed by: cddbd v1.5.2PL0 Copyright (c) Steve Scherf et al.
# Submitted via: dBpowerAMP V12.0
#
DISCID=7008900a
DTITLE=Mavericks, The - From Hell To Paradise
DYEAR=1992
DGENRE=Country
TTITLE0=Mr. Jones
TTITLE1=The End Of The Line
TTITLE2=Excuse Me (I Think I've Got A Heartache)
TTITLE3=This Broken Heart
TTITLE4=I Got You
TTITLE5=From Hell To Paradise
TTITLE6=A Better Way
TTITLE7=Forever Blue
TTITLE8=Hey Good Lookin'
TTITLE9=Children
EXTD=
EXTT0=
EXTT1=
EXTT2=
EXTT3=
EXTT4=
EXTT5=
EXTT6=
EXTT7=
EXTT8=
EXTT9=
PLAYORDER=
